<svg width="92" height="36" viewBox="0 0 92 36" fill="none" xmlns="http://www.w3.org/2000/svg">
<path d="M7.344 0.527999C8.672 0.527999 9.808 0.751999 10.752 1.2C11.696 1.648 12.416 2.288 12.912 3.12C13.424 3.952 13.68 4.96 13.68 6.144C13.68 6.832 13.568 7.52 13.344 8.208C13.136 8.896 12.8 9.52 12.336 10.08C11.888 10.64 11.28 11.096 10.512 11.448C9.76 11.784 8.832 11.952 7.728 11.952H5.208V18H2.4V0.527999H7.344ZM7.728 9.24C8.336 9.24 8.848 9.136 9.264 8.928C9.68 8.72 10 8.456 10.224 8.136C10.464 7.816 10.632 7.488 10.728 7.152C10.84 6.8 10.896 6.488 10.896 6.216C10.896 5.928 10.848 5.616 10.752 5.28C10.656 4.928 10.496 4.6 10.272 4.296C10.048 3.976 9.736 3.72 9.336 3.528C8.936 3.32 8.424 3.216 7.8 3.216H5.208V9.24H7.728ZM14.1199 12.816C14.1199 11.792 14.3599 10.872 14.8399 10.056C15.3199 9.224 15.9919 8.576 16.8559 8.112C17.7359 7.632 18.7279 7.392 19.8319 7.392C20.9679 7.392 21.9519 7.632 22.7839 8.112C23.6319 8.576 24.2879 9.224 24.7519 10.056C25.2159 10.872 25.4479 11.792 25.4479 12.816C25.4479 13.84 25.2159 14.768 24.7519 15.6C24.2879 16.416 23.6319 17.064 22.7839 17.544C21.9519 18.024 20.9599 18.264 19.8079 18.264C18.7199 18.264 17.7439 18.048 16.8799 17.616C16.0159 17.168 15.3359 16.536 14.8399 15.72C14.3599 14.904 14.1199 13.936 14.1199 12.816ZM16.8319 12.84C16.8319 13.432 16.9599 13.976 17.2159 14.472C17.4719 14.952 17.8239 15.336 18.2719 15.624C18.7199 15.912 19.2159 16.056 19.7599 16.056C20.3519 16.056 20.8639 15.912 21.2959 15.624C21.7439 15.336 22.0879 14.952 22.3279 14.472C22.5839 13.976 22.7119 13.432 22.7119 12.84C22.7119 12.232 22.5839 11.688 22.3279 11.208C22.0879 10.712 21.7439 10.32 21.2959 10.032C20.8639 9.744 20.3519 9.6 19.7599 9.6C19.1999 9.6 18.6959 9.752 18.2479 10.056C17.8159 10.344 17.4719 10.728 17.2159 11.208C16.9599 11.688 16.8319 12.232 16.8319 12.84ZM32.8804 18.264C32.1764 18.264 31.4964 18.112 30.8404 17.808C30.1844 17.504 29.6564 17.088 29.2564 16.56L29.4004 15.744V22.872H26.7124V7.656H29.0404L29.4004 10.008L29.1604 9.288C29.6564 8.744 30.2564 8.296 30.9604 7.944C31.6804 7.576 32.4884 7.392 33.3844 7.392C34.3444 7.392 35.2004 7.616 35.9524 8.064C36.7044 8.512 37.2964 9.152 37.7284 9.984C38.1764 10.8 38.4004 11.768 38.4004 12.888C38.4004 14.008 38.1604 14.968 37.6804 15.768C37.2004 16.568 36.5444 17.184 35.7124 17.616C34.8804 18.048 33.9364 18.264 32.8804 18.264ZM32.3524 16.128C32.9444 16.128 33.4884 15.992 33.9844 15.72C34.4964 15.448 34.9044 15.072 35.2084 14.592C35.5124 14.096 35.6644 13.544 35.6644 12.936C35.6644 12.296 35.5204 11.736 35.2324 11.256C34.9604 10.76 34.5844 10.376 34.1044 10.104C33.6404 9.816 33.1204 9.672 32.5444 9.672C32.0164 9.672 31.5444 9.76 31.1284 9.936C30.7124 10.112 30.3604 10.368 30.0724 10.704C29.7844 11.024 29.5604 11.408 29.4004 11.856V13.896C29.5124 14.328 29.7044 14.712 29.9764 15.048C30.2484 15.384 30.5924 15.648 31.0084 15.84C31.4244 16.032 31.8724 16.128 32.3524 16.128ZM42.7316 18.216C41.9636 18.216 41.2276 18.08 40.5236 17.808C39.8356 17.536 39.2516 17.136 38.7716 16.608L39.9236 15.096C40.3716 15.528 40.8116 15.848 41.2436 16.056C41.6916 16.248 42.1156 16.344 42.5156 16.344C42.8196 16.344 43.0916 16.312 43.3316 16.248C43.5876 16.168 43.7876 16.048 43.9316 15.888C44.0916 15.728 44.1716 15.512 44.1716 15.24C44.1716 14.92 44.0596 14.672 43.8356 14.496C43.6116 14.304 43.3236 14.152 42.9716 14.04C42.6196 13.912 42.2516 13.792 41.8676 13.68C40.9876 13.408 40.3316 13.008 39.8996 12.48C39.4676 11.952 39.2516 11.344 39.2516 10.656C39.2516 10.128 39.3876 9.624 39.6596 9.144C39.9316 8.648 40.3476 8.24 40.9076 7.92C41.4676 7.6 42.1716 7.44 43.0196 7.44C43.7876 7.44 44.4516 7.528 45.0116 7.704C45.5876 7.864 46.1236 8.144 46.6196 8.544L45.5876 10.152C45.2996 9.88 44.9556 9.672 44.5556 9.528C44.1716 9.368 43.8196 9.28 43.4996 9.264C43.2116 9.248 42.9556 9.288 42.7316 9.384C42.5076 9.464 42.3236 9.584 42.1796 9.744C42.0516 9.904 41.9876 10.088 41.9876 10.296C41.9716 10.616 42.0756 10.872 42.2996 11.064C42.5396 11.256 42.8436 11.408 43.2116 11.52C43.5796 11.632 43.9476 11.752 44.3156 11.88C44.8116 12.024 45.2516 12.224 45.6356 12.48C46.0196 12.736 46.3156 13.048 46.5236 13.416C46.7476 13.768 46.8596 14.208 46.8596 14.736C46.8596 15.344 46.7076 15.92 46.4036 16.464C46.0996 16.992 45.6436 17.416 45.0356 17.736C44.4276 18.056 43.6596 18.216 42.7316 18.216Z" fill="#F7C904"/>
<path d="M61.7841 16.632C61.5441 16.808 61.1681 17.024 60.6561 17.28C60.1441 17.536 59.5361 17.76 58.8321 17.952C58.1441 18.128 57.3761 18.208 56.5281 18.192C55.1681 18.176 53.9441 17.936 52.8561 17.472C51.7681 16.992 50.8481 16.352 50.0961 15.552C49.3441 14.736 48.7601 13.808 48.3441 12.768C47.9441 11.712 47.7441 10.592 47.7441 9.408C47.7441 8.08 47.9521 6.864 48.3681 5.76C48.7841 4.656 49.3761 3.704 50.1441 2.904C50.9121 2.088 51.8241 1.456 52.8801 1.008C53.9361 0.559999 55.0881 0.335999 56.3361 0.335999C57.4401 0.335999 58.4241 0.487999 59.2881 0.792C60.1681 1.08 60.9041 1.408 61.4961 1.776L60.3921 4.416C59.9441 4.096 59.3841 3.784 58.7121 3.48C58.0401 3.176 57.2801 3.024 56.4321 3.024C55.6641 3.024 54.9281 3.184 54.2241 3.504C53.5201 3.808 52.9041 4.248 52.3761 4.824C51.8481 5.384 51.4241 6.04 51.1041 6.792C50.8001 7.544 50.6481 8.36 50.6481 9.24C50.6481 10.152 50.7841 10.992 51.0561 11.76C51.3441 12.512 51.7441 13.168 52.2561 13.728C52.7841 14.288 53.4081 14.728 54.1281 15.048C54.8641 15.352 55.6801 15.504 56.5761 15.504C57.4881 15.504 58.2801 15.368 58.9521 15.096C59.6401 14.808 60.1921 14.488 60.6081 14.136L61.7841 16.632ZM67.6716 18.264C66.7116 18.264 65.8396 18.064 65.0556 17.664C64.2876 17.264 63.6796 16.672 63.2316 15.888C62.7836 15.088 62.5596 14.104 62.5596 12.936C62.5596 11.784 62.7916 10.8 63.2556 9.984C63.7356 9.152 64.3596 8.512 65.1276 8.064C65.9116 7.616 66.7596 7.392 67.6716 7.392C68.6476 7.392 69.4316 7.584 70.0236 7.968C70.6316 8.352 71.1036 8.808 71.4396 9.336L71.2956 9.72L71.5596 7.848H74.0316V18H71.3436V15.528L71.6076 16.176C71.5436 16.272 71.4156 16.432 71.2236 16.656C71.0316 16.864 70.7676 17.096 70.4316 17.352C70.0956 17.608 69.6956 17.824 69.2316 18C68.7836 18.176 68.2636 18.264 67.6716 18.264ZM68.4156 16.056C68.8956 16.056 69.3276 15.968 69.7116 15.792C70.1116 15.616 70.4476 15.368 70.7196 15.048C71.0076 14.728 71.2156 14.344 71.3436 13.896V11.688C71.2156 11.272 71.0076 10.912 70.7196 10.608C70.4316 10.288 70.0796 10.04 69.6636 9.864C69.2636 9.688 68.8156 9.6 68.3196 9.6C67.7756 9.6 67.2716 9.736 66.8076 10.008C66.3436 10.28 65.9676 10.656 65.6796 11.136C65.4076 11.616 65.2716 12.168 65.2716 12.792C65.2716 13.4 65.4156 13.952 65.7036 14.448C65.9916 14.944 66.3756 15.336 66.8556 15.624C67.3356 15.912 67.8556 16.056 68.4156 16.056ZM79.2313 18.216C78.4633 18.216 77.7273 18.08 77.0233 17.808C76.3353 17.536 75.7513 17.136 75.2713 16.608L76.4233 15.096C76.8713 15.528 77.3113 15.848 77.7433 16.056C78.1913 16.248 78.6153 16.344 79.0153 16.344C79.3193 16.344 79.5913 16.312 79.8313 16.248C80.0873 16.168 80.2873 16.048 80.4313 15.888C80.5913 15.728 80.6713 15.512 80.6713 15.24C80.6713 14.92 80.5593 14.672 80.3353 14.496C80.1113 14.304 79.8233 14.152 79.4713 14.04C79.1193 13.912 78.7513 13.792 78.3673 13.68C77.4873 13.408 76.8313 13.008 76.3993 12.48C75.9673 11.952 75.7513 11.344 75.7513 10.656C75.7513 10.128 75.8873 9.624 76.1593 9.144C76.4313 8.648 76.8473 8.24 77.4073 7.92C77.9673 7.6 78.6713 7.44 79.5193 7.44C80.2873 7.44 80.9513 7.528 81.5113 7.704C82.0873 7.864 82.6233 8.144 83.1193 8.544L82.0873 10.152C81.7993 9.88 81.4553 9.672 81.0553 9.528C80.6713 9.368 80.3193 9.28 79.9993 9.264C79.7113 9.248 79.4553 9.288 79.2313 9.384C79.0073 9.464 78.8233 9.584 78.6793 9.744C78.5513 9.904 78.4873 10.088 78.4873 10.296C78.4713 10.616 78.5753 10.872 78.7993 11.064C79.0393 11.256 79.3433 11.408 79.7113 11.52C80.0793 11.632 80.4473 11.752 80.8153 11.88C81.3113 12.024 81.7513 12.224 82.1353 12.48C82.5193 12.736 82.8153 13.048 83.0233 13.416C83.2473 13.768 83.3593 14.208 83.3593 14.736C83.3593 15.344 83.2073 15.92 82.9033 16.464C82.5993 16.992 82.1433 17.416 81.5353 17.736C80.9273 18.056 80.1593 18.216 79.2313 18.216ZM85.7318 3.384H88.4438V7.848H91.0838V9.96H88.4438V18H85.7318V9.96H84.0038V7.848H85.7318V3.384Z" fill="white"/>
<path d="M7 34.1762C37.0719 26.002 53.9267 25.8807 84 34.1762" stroke="#10B6D1" stroke-width="2"/>
</svg>
