<svg width="59" height="51" viewBox="0 0 59 51" fill="none" xmlns="http://www.w3.org/2000/svg">
<path d="M40 36.0267C45.8619 35.4254 48.9363 31.4165 49.2233 24C50.576 31.657 53.835 35.686 59 36.0869C52.6872 37.8508 49.5307 42.8218 49.5307 51C49.9407 43.6637 46.7637 38.6726 40 36.0267V36.0267Z" fill="white"/>
<g filter="url(#filter0_d_19_49)">
<path d="M9 13.4632C13.0108 13.0401 15.1143 10.219 15.3107 5C16.2362 10.3883 18.466 13.2235 22 13.5056C17.6807 14.7469 15.521 18.245 15.521 24C15.8015 18.8374 13.6278 15.3252 9 13.4632V13.4632Z" fill="#F7C904"/>
</g>
<defs>
<filter id="filter0_d_19_49" x="0" y="0" width="31" height="37" filterUnits="userSpaceOnUse" color-interpolation-filters="sRGB">
<feFlood flood-opacity="0" result="BackgroundImageFix"/>
<feColorMatrix in="SourceAlpha" type="matrix" values="0 0 0 0 0 0 0 0 0 0 0 0 0 0 0 0 0 0 127 0" result="hardAlpha"/>
<feOffset dy="4"/>
<feGaussianBlur stdDeviation="4.5"/>
<feComposite in2="hardAlpha" operator="out"/>
<feColorMatrix type="matrix" values="0 0 0 0 0.954479 0 0 0 0 0.761037 0 0 0 0 0.0371875 0 0 0 0.59 0"/>
<feBlend mode="normal" in2="BackgroundImageFix" result="effect1_dropShadow_19_49"/>
<feBlend mode="normal" in="SourceGraphic" in2="effect1_dropShadow_19_49" result="shape"/>
</filter>
</defs>
</svg>
