<svg width="74" height="67" viewBox="0 0 74 67" fill="none" xmlns="http://www.w3.org/2000/svg">
<path d="M0 12.0267C7.096 11.4254 10.8177 7.41648 11.165 0C12.8026 7.65701 16.7476 11.686 23 12.0869C15.3582 13.8508 11.5372 18.8218 11.5372 27C12.0334 19.6637 8.1877 14.6726 0 12.0267V12.0267Z" fill="white"/>
<g filter="url(#filter0_d_19_51)">
<path d="M49 43.4632C53.9364 43.0401 56.5253 40.219 56.767 35C57.9061 40.3883 60.6505 43.2235 65 43.5056C59.6839 44.7469 57.0259 48.245 57.0259 54C57.3711 48.8374 54.6958 45.3252 49 43.4632V43.4632Z" fill="#F7C904"/>
</g>
<defs>
<filter id="filter0_d_19_51" x="40" y="30" width="34" height="37" filterUnits="userSpaceOnUse" color-interpolation-filters="sRGB">
<feFlood flood-opacity="0" result="BackgroundImageFix"/>
<feColorMatrix in="SourceAlpha" type="matrix" values="0 0 0 0 0 0 0 0 0 0 0 0 0 0 0 0 0 0 127 0" result="hardAlpha"/>
<feOffset dy="4"/>
<feGaussianBlur stdDeviation="4.5"/>
<feComposite in2="hardAlpha" operator="out"/>
<feColorMatrix type="matrix" values="0 0 0 0 0.954479 0 0 0 0 0.761037 0 0 0 0 0.0371875 0 0 0 0.59 0"/>
<feBlend mode="normal" in2="BackgroundImageFix" result="effect1_dropShadow_19_51"/>
<feBlend mode="normal" in="SourceGraphic" in2="effect1_dropShadow_19_51" result="shape"/>
</filter>
</defs>
</svg>
