<svg width="24" height="25" viewBox="0 0 24 25" fill="none" xmlns="http://www.w3.org/2000/svg">
<path d="M11.6667 0.742249C18.0968 0.742249 23.3333 5.97621 23.3333 12.4157C23.3333 18.8416 18.0968 24.0756 11.6667 24.0756C5.23649 24.0756 0 18.8416 0 12.4157C0 5.97621 5.23649 0.742249 11.6667 0.742249ZM10.3378 7.77714C10.0901 7.77714 9.8536 7.83342 9.62838 7.94598C9.34685 8.10356 9.12162 8.35119 8.99775 8.64384C8.91892 8.84645 8.79505 9.45426 8.79505 9.46552C8.67117 10.1296 8.6036 11.2102 8.6036 12.4033C8.6036 13.5413 8.67117 14.5757 8.77252 15.251C8.78378 15.2623 8.90766 16.0164 9.04279 16.2753C9.29054 16.748 9.77477 17.0407 10.2928 17.0407H10.3378C10.6757 17.0294 11.3851 16.7368 11.3851 16.7255C12.5788 16.2303 14.9324 14.6882 15.8784 13.6639L15.9459 13.5964C16.0698 13.4726 16.2275 13.2812 16.2613 13.2362C16.4414 12.9998 16.5315 12.7072 16.5315 12.4157C16.5315 12.0881 16.4302 11.7842 16.2387 11.5366C16.1937 11.4916 16.0248 11.3002 15.8671 11.1426C14.9437 10.1521 12.5338 8.53128 11.2725 8.03603C11.0811 7.95836 10.5968 7.7884 10.3378 7.77714Z" fill="white"/>
</svg>
