<svg width="20" height="20" viewBox="0 0 20 20" fill="none" xmlns="http://www.w3.org/2000/svg">
<path fill-rule="evenodd" clip-rule="evenodd" d="M15.7812 3.94231C16.1482 4.3092 16.4346 4.74869 16.622 5.23264C16.8381 5.8068 16.9534 6.41396 16.9628 7.02736C17.0081 7.80207 17.0081 8.05302 17.0081 10.0307C17.0081 12.0084 16.9976 12.2553 16.9628 13.034C16.9507 13.6395 16.8365 14.237 16.6236 14.8036C16.436 15.2875 16.1495 15.727 15.7825 16.094C15.4155 16.461 14.976 16.7475 14.4921 16.9351C13.9257 17.1473 13.3273 17.262 12.7225 17.2743C11.9494 17.3188 11.696 17.3188 9.71919 17.3188C7.74233 17.3188 7.49543 17.3083 6.71586 17.2743C6.10982 17.2544 5.51164 17.1312 4.94705 16.91C4.463 16.7227 4.02336 16.4364 3.65621 16.0696C3.28906 15.7027 3.00247 15.2633 2.81476 14.7794C2.60186 14.2119 2.48771 13.6145 2.47557 13.0089C2.43024 12.2342 2.43024 11.9825 2.43024 10.0056C2.43024 8.02793 2.44076 7.78102 2.47557 7.00226C2.4874 6.39741 2.6021 5.799 2.81476 5.23264C3.00195 4.74857 3.28825 4.30896 3.65532 3.94204C4.02238 3.57512 4.46209 3.28898 4.94624 3.10198C5.5119 2.88875 6.10984 2.77376 6.71424 2.76198C7.48733 2.71826 7.74071 2.71826 9.71757 2.71826C11.6944 2.71826 11.9413 2.72798 12.7209 2.76198C13.3258 2.7744 13.9241 2.88936 14.4905 3.10198C14.9745 3.2892 15.4141 3.57541 15.7812 3.94231ZM15.3842 14.3155C15.5456 13.8777 15.6308 13.4156 15.636 12.949V12.9498H15.6449C15.6797 12.1759 15.6797 11.9638 15.6797 9.99199V9.99183C15.6797 8.01902 15.6708 7.80288 15.636 7.03302C15.6285 6.57172 15.5434 6.11498 15.3842 5.68193C15.2626 5.36708 15.0765 5.08115 14.8378 4.84248C14.5991 4.60381 14.3132 4.41767 13.9983 4.29602C13.5655 4.13499 13.1082 4.04982 12.6464 4.04426C11.8636 3.99974 11.6612 3.99974 9.68843 3.99974C7.71562 3.99974 7.49948 4.00945 6.72962 4.04426C6.26821 4.05071 5.81129 4.13585 5.37852 4.29602C4.73981 4.5405 4.23386 5.04321 3.98695 5.68193C3.82558 6.11941 3.74042 6.58133 3.73519 7.04759C3.69228 7.83202 3.69228 8.03359 3.69228 10.0064C3.69228 11.9784 3.70038 12.1954 3.73519 12.9644C3.74273 13.4257 3.82784 13.8824 3.98695 14.3155C4.10906 14.6309 4.29601 14.9172 4.53572 15.1558C4.77543 15.3943 5.06256 15.58 5.37852 15.7006C5.81107 15.8615 6.26813 15.9467 6.72962 15.9524C7.51324 15.9969 7.71481 15.9969 9.68843 15.9969C11.6604 15.9969 11.8774 15.988 12.6464 15.9524C13.1081 15.9464 13.5654 15.8612 13.9983 15.7006C14.3132 15.5792 14.5992 15.3933 14.8379 15.1547C15.0766 14.9162 15.2627 14.6303 15.3842 14.3155ZM13.6054 6.99256C14.0873 6.99256 14.478 6.60186 14.478 6.1199C14.478 5.63794 14.0873 5.24723 13.6054 5.24723C13.1234 5.24723 12.7327 5.63794 12.7327 6.1199C12.7327 6.60186 13.1234 6.99256 13.6054 6.99256ZM9.71356 6.25756C8.72079 6.25756 7.76869 6.65193 7.06669 7.35393C6.3647 8.05592 5.97032 9.00803 5.97032 10.0008C5.97032 10.9936 6.3647 11.9457 7.06669 12.6477C7.76869 13.3497 8.72079 13.744 9.71356 13.744C10.7063 13.744 11.6584 13.3497 12.3604 12.6477C13.0624 11.9457 13.4568 10.9936 13.4568 10.0008C13.4568 9.00803 13.0624 8.05592 12.3604 7.35393C11.6584 6.65193 10.7063 6.25756 9.71356 6.25756ZM9.71356 12.4318C9.0686 12.4318 8.45006 12.1756 7.99401 11.7195C7.53796 11.2635 7.28175 10.6449 7.28175 9.99999C7.28175 9.35503 7.53796 8.73649 7.99401 8.28044C8.45006 7.82438 9.0686 7.56818 9.71356 7.56818C10.3585 7.56818 10.9771 7.82438 11.4331 8.28044C11.8892 8.73649 12.1454 9.35503 12.1454 9.99999C12.1454 10.6449 11.8892 11.2635 11.4331 11.7195C10.9771 12.1756 10.3585 12.4318 9.71356 12.4318Z" fill="#1F1E25"/>
</svg>
