<svg width="20" height="20" viewBox="0 0 20 20" fill="none" xmlns="http://www.w3.org/2000/svg">
<path d="M15.4215 4.2605C13.9076 2.73859 11.8919 1.90479 9.74669 1.90479C5.32669 1.90479 1.72431 5.50717 1.72431 9.92717C1.72431 11.3438 2.09669 12.72 2.79288 13.9343L1.65955 18.0953L5.90955 16.9781C7.08336 17.6176 8.40288 17.9576 9.74669 17.9576C14.1667 17.9576 17.7691 14.3553 17.7691 9.93526C17.7691 7.79002 16.9353 5.77431 15.4215 4.2605ZM9.74669 16.5976C8.54859 16.5976 7.37478 16.2738 6.34669 15.6667L6.10383 15.521L3.57812 16.1848L4.25002 13.7238L4.08812 13.4729C3.42431 12.4124 3.06812 11.1819 3.06812 9.92717C3.06812 6.25193 6.06336 3.25669 9.73859 3.25669C11.5195 3.25669 13.1953 3.95288 14.45 5.21574C15.7129 6.4786 16.401 8.15431 16.401 9.93526C16.4172 13.6105 13.4219 16.5976 9.74669 16.5976ZM13.4057 11.611C13.2034 11.5138 12.2157 11.0281 12.0376 10.9553C11.8515 10.8905 11.7219 10.8581 11.5843 11.0524C11.4467 11.2548 11.0662 11.7081 10.9529 11.8376C10.8395 11.9753 10.7181 11.9915 10.5157 11.8862C10.3134 11.7891 9.66574 11.5705 8.90479 10.8905C8.30574 10.3562 7.90907 9.7005 7.78764 9.49812C7.67431 9.29574 7.77145 9.1905 7.87669 9.08526C7.96574 8.99621 8.07907 8.8505 8.17621 8.73717C8.27336 8.62383 8.31383 8.53479 8.37859 8.40526C8.44336 8.26764 8.41098 8.15431 8.3624 8.05717C8.31383 7.96002 7.90907 6.9724 7.74717 6.56764C7.58526 6.17907 7.41526 6.22764 7.29383 6.21955C7.1724 6.21955 7.04288 6.21955 6.90526 6.21955C6.76764 6.21955 6.55717 6.26812 6.37097 6.4705C6.19288 6.67288 5.67478 7.1586 5.67478 8.14621C5.67478 9.13383 6.39526 10.0891 6.4924 10.2186C6.58955 10.3562 7.90907 12.38 9.91669 13.2462C10.3943 13.4567 10.7667 13.5781 11.0581 13.6672C11.5357 13.821 11.9729 13.7967 12.321 13.7481C12.7095 13.6915 13.511 13.2624 13.6729 12.7929C13.8429 12.3234 13.8429 11.9267 13.7862 11.8376C13.7295 11.7486 13.6081 11.7081 13.4057 11.611Z" fill="#1F1E25"/>
</svg>
