<svg width="28" height="28" viewBox="0 0 28 28" fill="none" xmlns="http://www.w3.org/2000/svg">
<circle cx="14.9999" cy="14.9999" r="8" fill="#1F1E25"/>
<path d="M14 2.33325C20.4302 2.33325 25.6666 7.56721 25.6666 14.0067C25.6666 20.4326 20.4302 25.6666 14 25.6666C7.5698 25.6666 2.33331 20.4326 2.33331 14.0067C2.33331 7.56721 7.5698 2.33325 14 2.33325ZM12.6712 9.36815C12.4234 9.36815 12.1869 9.42442 11.9617 9.53698C11.6802 9.69456 11.4549 9.94219 11.3311 10.2348C11.2522 10.4374 11.1284 11.0453 11.1284 11.0565C11.0045 11.7206 10.9369 12.8012 10.9369 13.9943C10.9369 15.1323 11.0045 16.1667 11.1058 16.842C11.1171 16.8533 11.241 17.6074 11.3761 17.8663C11.6239 18.339 12.1081 18.6317 12.6261 18.6317H12.6712C13.009 18.6204 13.7184 18.3278 13.7184 18.3165C14.9121 17.8213 17.2657 16.2792 18.2117 15.2549L18.2793 15.1874C18.4031 15.0636 18.5608 14.8722 18.5946 14.8272C18.7748 14.5909 18.8648 14.2982 18.8648 14.0067C18.8648 13.6791 18.7635 13.3752 18.5721 13.1276C18.527 13.0826 18.3581 12.8912 18.2004 12.7336C17.277 11.7431 14.8671 10.1223 13.6058 9.62703C13.4144 9.54936 12.9302 9.3794 12.6712 9.36815Z" fill="white"/>
</svg>
